<svg width="24" height="24" viewBox="0 0 24 24" fill="none" xmlns="http://www.w3.org/2000/svg">
<path d="M6.6001 7.87512C6.6001 7.66801 6.76799 7.50012 6.97509 7.50012H16.7249C16.932 7.50012 17.0999 7.66801 17.0999 7.87512V8.6251C17.0999 8.8322 16.932 9.00009 16.7249 9.00009H6.97509C6.76799 9.00009 6.6001 8.8322 6.6001 8.6251V7.87512Z" fill="#44D600"/>
<path d="M7.35059 9.75006H16.3504V12.75C16.3504 14.821 14.6715 16.4999 12.6005 16.4999H11.1005C9.02949 16.4999 7.35059 14.821 7.35059 12.75V9.75006Z" fill="#44D600"/>
<path d="M8.8501 3.75017C8.8501 3.33596 9.18588 3.00018 9.60008 3.00018C10.0143 3.00018 10.3501 3.33596 10.3501 3.75017V6.75011H8.8501V3.75017Z" fill="#44D600"/>
<path d="M13.3501 3.75017C13.3501 3.33596 13.6859 3.00018 14.1001 3.00018C14.5143 3.00018 14.8501 3.33596 14.8501 3.75017V6.75011H13.3501V3.75017Z" fill="#44D600"/>
<path d="M11.1006 15.7497C11.1006 15.3355 11.4364 14.9997 11.8506 14.9997C12.2648 14.9997 12.6006 15.3355 12.6006 15.7497V20.2496C12.6006 20.6638 12.2648 20.9996 11.8506 20.9996C11.4364 20.9996 11.1006 20.6638 11.1006 20.2496V15.7497Z" fill="#44D600"/>
<path d="M10.3511 15.7501H13.351V18H10.3511V15.7501Z" fill="#44D600"/>
</svg>
