<svg width="24" height="24" viewBox="0 0 24 24" fill="none" xmlns="http://www.w3.org/2000/svg">
<path d="M6.6001 7.87512C6.6001 7.66801 6.76799 7.50012 6.97509 7.50012H16.7249C16.932 7.50012 17.0999 7.66801 17.0999 7.87512V8.6251C17.0999 8.8322 16.932 9.00009 16.7249 9.00009H6.97509C6.76799 9.00009 6.6001 8.8322 6.6001 8.6251V7.87512Z" fill="#FF5353"/>
<path d="M7.35059 9.75006H16.3504V12.75C16.3504 14.821 14.6715 16.4999 12.6005 16.4999H11.1005C9.02949 16.4999 7.35059 14.821 7.35059 12.75V9.75006Z" fill="#FF5353"/>
<path d="M8.8501 3.75017C8.8501 3.33596 9.18588 3.00018 9.60008 3.00018C10.0143 3.00018 10.3501 3.33596 10.3501 3.75017V6.75011H8.8501V3.75017Z" fill="#FF5353"/>
<path d="M13.3501 3.75017C13.3501 3.33596 13.6859 3.00018 14.1001 3.00018C14.5143 3.00018 14.8501 3.33596 14.8501 3.75017V6.75011H13.3501V3.75017Z" fill="#FF5353"/>
<path d="M11.1001 15.7497C11.1001 15.3355 11.4359 14.9998 11.8501 14.9998C12.2643 14.9998 12.6001 15.3355 12.6001 15.7497V20.2497C12.6001 20.6639 12.2643 20.9996 11.8501 20.9996C11.4359 20.9996 11.1001 20.6639 11.1001 20.2497V15.7497Z" fill="#FF5353"/>
<path d="M10.3506 15.7501H13.3505V18.0001H10.3506V15.7501Z" fill="#FF5353"/>
</svg>
