<svg width="72" height="72" viewBox="0 0 72 72" fill="none" xmlns="http://www.w3.org/2000/svg">
<path d="M53.2671 7.87801C58.0773 10.8315 62.0495 14.9694 64.804 19.8962C67.5584 24.823 69.0032 30.374 69 36.0185C68.9968 41.663 67.5459 47.2124 64.7859 52.1361C62.0258 57.0598 58.049 61.1933 53.2356 64.1413" stroke="#44D600" stroke-width="6" stroke-linecap="round"/>
<path d="M18.7329 7.87801C13.9227 10.8315 9.95053 14.9694 7.19604 19.8962C4.44155 24.823 2.99684 30.374 3.00001 36.0185C3.00317 41.663 4.45412 47.2124 7.21413 52.1361C9.97415 57.0598 13.951 61.1933 18.7644 64.1413" stroke="#44D600" stroke-width="6" stroke-linecap="round"/>
<circle cx="36" cy="36" r="23" stroke="#44D600" stroke-width="6"/>
<path d="M22.1532 42H24.4597V38.1328H26.1429L28.2097 42H30.7559L28.4387 37.7599C29.6799 37.2273 30.367 36.146 30.367 34.6545C30.367 32.4865 28.9341 31.0909 26.4572 31.0909H22.1532V42ZM24.4597 36.2791V32.9766H26.0151C27.3468 32.9766 27.9913 33.5678 27.9913 34.6545C27.9913 35.7358 27.3468 36.2791 26.0257 36.2791H24.4597ZM31.997 42H36.6578C39.1081 42 40.4132 40.7216 40.4132 38.9851C40.4132 37.3711 39.2573 36.3963 38.0162 36.3377V36.2312C39.1507 35.9755 39.987 35.1712 39.987 33.8874C39.987 32.2521 38.7726 31.0909 36.3649 31.0909H31.997V42ZM34.3034 40.1143V37.2166H36.237C37.345 37.2166 38.0321 37.8558 38.0321 38.756C38.0321 39.5763 37.4728 40.1143 36.1838 40.1143H34.3034ZM34.3034 35.6559V32.9553H36.0559C37.0787 32.9553 37.6593 33.4826 37.6593 34.271C37.6593 35.1339 36.9561 35.6559 36.0133 35.6559H34.3034ZM47.8319 34.2283H50.0425C50.0106 32.2841 48.4126 30.9418 45.9836 30.9418C43.5919 30.9418 41.8394 32.2628 41.8501 34.2443C41.8447 35.853 42.9793 36.7745 44.8224 37.2166L46.0102 37.5149C47.1981 37.8026 47.8586 38.1435 47.8639 38.8786C47.8586 39.6776 47.1022 40.2209 45.9303 40.2209C44.7318 40.2209 43.8689 39.6669 43.7943 38.5749H41.5624C41.621 40.9347 43.3096 42.1545 45.9569 42.1545C48.6203 42.1545 50.1863 40.8814 50.1917 38.8839C50.1863 37.0675 48.8174 36.1033 46.9211 35.6772L45.941 35.4428C44.9928 35.2244 44.1991 34.8729 44.2151 34.0898C44.2151 33.3867 44.8383 32.87 45.9676 32.87C47.0702 32.87 47.7467 33.3707 47.8319 34.2283Z" fill="#44D600"/>
</svg>
