<svg width="72" height="95" viewBox="0 0 72 95" fill="none" xmlns="http://www.w3.org/2000/svg">
<path d="M53.2671 7.87801C58.0773 10.8315 62.0495 14.9694 64.804 19.8962C67.5584 24.823 69.0032 30.374 69 36.0185C68.9968 41.663 67.5459 47.2124 64.7859 52.1361C62.0258 57.0598 58.049 61.1933 53.2356 64.1413" stroke="#FFC700" stroke-width="6" stroke-linecap="round"/>
<path d="M18.7329 7.87801C13.9227 10.8315 9.95053 14.9694 7.19604 19.8962C4.44155 24.823 2.99684 30.374 3.00001 36.0185C3.00317 41.663 4.45412 47.2124 7.21413 52.1361C9.97415 57.0598 13.951 61.1933 18.7644 64.1413" stroke="#FFC700" stroke-width="6" stroke-linecap="round"/>
<circle cx="36" cy="36" r="23" stroke="#FFC700" stroke-width="6"/>
<path d="M33.5054 43.5004C33.5054 43.1721 33.57 42.847 33.6957 42.5437C33.8213 42.2404 34.0055 41.9648 34.2376 41.7326C34.4698 41.5005 34.7453 41.3164 35.0487 41.1907C35.352 41.0651 35.6771 41.0004 36.0054 41.0004C36.3337 41.0004 36.6588 41.0651 36.9621 41.1907C37.2654 41.3164 37.541 41.5005 37.7731 41.7326C38.0053 41.9648 38.1894 42.2404 38.3151 42.5437C38.4407 42.847 38.5054 43.1721 38.5054 43.5004C38.5054 44.1635 38.242 44.7993 37.7731 45.2682C37.3043 45.737 36.6684 46.0004 36.0054 46.0004C35.3423 46.0004 34.7064 45.737 34.2376 45.2682C33.7688 44.7993 33.5054 44.1635 33.5054 43.5004ZM33.7504 28.4879C33.7171 28.1725 33.7505 27.8536 33.8484 27.552C33.9463 27.2503 34.1065 26.9726 34.3187 26.7369C34.5308 26.5011 34.7902 26.3126 35.0799 26.1836C35.3696 26.0546 35.6832 25.9879 36.0004 25.9879C36.3175 25.9879 36.6311 26.0546 36.9208 26.1836C37.2106 26.3126 37.4699 26.5011 37.6821 26.7369C37.8942 26.9726 38.0545 27.2503 38.1524 27.552C38.2503 27.8536 38.2837 28.1725 38.2504 28.4879L37.3754 37.2554C37.3398 37.5953 37.1796 37.91 36.9257 38.1388C36.6718 38.3675 36.3421 38.4941 36.0004 38.4941C35.6586 38.4941 35.329 38.3675 35.075 38.1388C34.8211 37.91 34.6609 37.5953 34.6254 37.2554L33.7504 28.4879Z" fill="#FFC700"/>
<path d="M11.6942 89H16.3551C18.8054 89 20.1104 87.7216 20.1104 85.9851C20.1104 84.3711 18.9545 83.3963 17.7134 83.3377V83.2312C18.848 82.9755 19.6843 82.1712 19.6843 80.8874C19.6843 79.2521 18.4698 78.0909 16.0621 78.0909H11.6942V89ZM14.0007 87.1143V84.2166H15.9343C17.0423 84.2166 17.7294 84.8558 17.7294 85.756C17.7294 86.5763 17.1701 87.1143 15.881 87.1143H14.0007ZM14.0007 82.6559V79.9553H15.7532C16.7759 79.9553 17.3565 80.4826 17.3565 81.271C17.3565 82.1339 16.6534 82.6559 15.7106 82.6559H14.0007ZM21.6112 89H23.9177V85.1328H25.6009L27.6677 89H30.2139L27.8968 84.7599C29.1379 84.2273 29.825 83.146 29.825 81.6545C29.825 79.4865 28.3921 78.0909 25.9152 78.0909H21.6112V89ZM23.9177 83.2791V79.9766H25.4731C26.8048 79.9766 27.4493 80.5678 27.4493 81.6545C27.4493 82.7358 26.8048 83.2791 25.4838 83.2791H23.9177ZM33.3353 89L34.145 86.5124H38.0814L38.8911 89H41.3627L37.602 78.0909H34.6297L30.8637 89H33.3353ZM34.7309 84.712L36.0732 80.5838H36.1585L37.5008 84.712H34.7309ZM42.6757 89H44.9822V85.8999L46.1167 84.5149L49.105 89H51.8643L47.768 82.9755L51.8163 78.0909H49.0518L45.126 82.9009H44.9822V78.0909H42.6757V89ZM53.0175 89H60.3896V87.0984H55.324V84.4936H59.9901V82.592H55.324V79.9925H60.3683V78.0909H53.0175V89Z" fill="#FFC700"/>
</svg>
