<svg width="50" height="24" viewBox="0 0 50 24" fill="none" xmlns="http://www.w3.org/2000/svg">
<rect x="4.45" y="3.45" width="39.1" height="17.1" rx="2.55" stroke="white" stroke-opacity="0.6" stroke-width="0.9"/>
<mask id="path-2-inside-1" fill="white">
<path d="M6 6.43791C6 5.64377 6.64377 5 7.43791 5H40.5621C41.3562 5 42 5.64377 42 6.43791V17.5621C42 18.3562 41.3562 19 40.5621 19H7.43791C6.64378 19 6 18.3562 6 17.5621V6.43791Z"/>
</mask>
<path d="M6 6.43791C6 5.64377 6.64377 5 7.43791 5H40.5621C41.3562 5 42 5.64377 42 6.43791V17.5621C42 18.3562 41.3562 19 40.5621 19H7.43791C6.64378 19 6 18.3562 6 17.5621V6.43791Z" fill="#44D600"/>
<path d="M7.5 6.43791C7.5 6.4722 7.4722 6.5 7.43791 6.5V3.5C5.81535 3.5 4.5 4.81535 4.5 6.43791H7.5ZM7.43791 6.5H40.5621V3.5H7.43791V6.5ZM40.5621 6.5C40.5278 6.5 40.5 6.4722 40.5 6.43791H43.5C43.5 4.81535 42.1847 3.5 40.5621 3.5V6.5ZM40.5 6.43791V17.5621H43.5V6.43791H40.5ZM40.5 17.5621C40.5 17.5278 40.5278 17.5 40.5621 17.5V20.5C42.1847 20.5 43.5 19.1847 43.5 17.5621H40.5ZM40.5621 17.5H7.43791V20.5H40.5621V17.5ZM7.43791 17.5C7.4722 17.5 7.5 17.5278 7.5 17.5621H4.5C4.5 19.1847 5.81535 20.5 7.43791 20.5V17.5ZM7.5 17.5621V6.43791H4.5V17.5621H7.5Z" fill="#44D600" mask="url(#path-2-inside-1)"/>
<path d="M45 15V15C45.5523 15 46 14.5523 46 14V10C46 9.44772 45.5523 9 45 9V9" stroke="white" stroke-opacity="0.6" stroke-width="0.9"/>
</svg>
