<svg width="50" height="24" viewBox="0 0 50 24" fill="none" xmlns="http://www.w3.org/2000/svg">
<mask id="path-1-inside-1" fill="white">
<path fill-rule="evenodd" clip-rule="evenodd" d="M24.4522 5H7.43791C6.64377 5 6 5.64377 6 6.43791V17.5621C6 18.3562 6.64378 19 7.43791 19H20.3966L20.7856 17.4537L21.6523 14.6135H19.3414C19.0796 14.6135 18.8235 14.5292 18.6046 14.3708C18.3857 14.2123 18.2137 13.9868 18.1099 13.7219C18.006 13.457 17.9749 13.1644 18.0203 12.8803C18.0657 12.5964 18.1859 12.3328 18.3653 12.1229L24.4522 5ZM24.5478 19H40.5621C41.3562 19 42 18.3562 42 17.5621V6.43791C42 5.64377 41.3562 5 40.5621 5H28.5841L27.4012 9.38648H29.6582C29.9201 9.38644 30.1765 9.47081 30.3954 9.62919C30.6143 9.78764 30.7863 10.0132 30.8901 10.2781C30.994 10.543 31.0251 10.8355 30.9797 11.1197C30.9343 11.4036 30.8146 11.6666 30.6351 11.8765L24.5478 19Z"/>
</mask>
<path fill-rule="evenodd" clip-rule="evenodd" d="M24.4522 5H7.43791C6.64377 5 6 5.64377 6 6.43791V17.5621C6 18.3562 6.64378 19 7.43791 19H20.3966L20.7856 17.4537L21.6523 14.6135H19.3414C19.0796 14.6135 18.8235 14.5292 18.6046 14.3708C18.3857 14.2123 18.2137 13.9868 18.1099 13.7219C18.006 13.457 17.9749 13.1644 18.0203 12.8803C18.0657 12.5964 18.1859 12.3328 18.3653 12.1229L24.4522 5ZM24.5478 19H40.5621C41.3562 19 42 18.3562 42 17.5621V6.43791C42 5.64377 41.3562 5 40.5621 5H28.5841L27.4012 9.38648H29.6582C29.9201 9.38644 30.1765 9.47081 30.3954 9.62919C30.6143 9.78764 30.7863 10.0132 30.8901 10.2781C30.994 10.543 31.0251 10.8355 30.9797 11.1197C30.9343 11.4036 30.8146 11.6666 30.6351 11.8765L24.5478 19Z" fill="#44D600"/>
<path d="M24.4522 5L25.5926 5.97448L27.7071 3.5H24.4522V5ZM20.3966 19V20.5H21.5659L21.8512 19.366L20.3966 19ZM20.7856 17.4537L19.3509 17.016L19.3401 17.0516L19.331 17.0877L20.7856 17.4537ZM21.6523 14.6135L23.087 15.0513L23.6783 13.1135H21.6523V14.6135ZM19.3414 14.6135V13.1135H19.3412L19.3414 14.6135ZM18.6046 14.3708L19.4841 13.1557L19.4841 13.1557L18.6046 14.3708ZM18.1099 13.7219L16.7134 14.2694L16.7134 14.2694L18.1099 13.7219ZM18.0203 12.8803L16.5391 12.6436V12.6436L18.0203 12.8803ZM18.3653 12.1229L19.5053 13.0978L19.5057 13.0974L18.3653 12.1229ZM24.5478 19L23.4074 18.0255L21.2929 20.5H24.5478V19ZM28.5841 5V3.5H27.435L27.1358 4.60944L28.5841 5ZM27.4012 9.38648L25.9529 8.99592L25.4431 10.8865H27.4012V9.38648ZM29.6582 9.38648V10.8865H29.6585L29.6582 9.38648ZM30.3954 9.62919L29.5159 10.8443L29.5159 10.8443L30.3954 9.62919ZM30.8901 10.2781L29.4936 10.8256V10.8256L30.8901 10.2781ZM30.9797 11.1197L32.4609 11.3563L32.4609 11.3563L30.9797 11.1197ZM30.6351 11.8765L29.4951 10.9016L29.4948 10.902L30.6351 11.8765ZM7.43791 6.5H24.4522V3.5H7.43791V6.5ZM7.5 6.43791C7.5 6.4722 7.4722 6.5 7.43791 6.5V3.5C5.81535 3.5 4.5 4.81535 4.5 6.43791H7.5ZM7.5 17.5621V6.43791H4.5V17.5621H7.5ZM7.43791 17.5C7.4722 17.5 7.5 17.5278 7.5 17.5621H4.5C4.5 19.1847 5.81535 20.5 7.43791 20.5V17.5ZM20.3966 17.5H7.43791V20.5H20.3966V17.5ZM21.8512 19.366L22.2403 17.8197L19.331 17.0877L18.9419 18.634L21.8512 19.366ZM22.2203 17.8915L23.087 15.0513L20.2176 14.1757L19.3509 17.016L22.2203 17.8915ZM21.6523 13.1135H19.3414V16.1135H21.6523V13.1135ZM19.3412 13.1135C19.4058 13.1135 19.4557 13.1351 19.4841 13.1557L17.7252 15.5859C18.1912 15.9232 18.7534 16.1136 19.3417 16.1135L19.3412 13.1135ZM19.4841 13.1557C19.4974 13.1653 19.5043 13.1734 19.5069 13.1768C19.5095 13.1801 19.5085 13.1797 19.5064 13.1744L16.7134 14.2694C16.9163 14.7869 17.261 15.2499 17.7252 15.5859L19.4841 13.1557ZM19.5064 13.1744C19.5014 13.1616 19.4978 13.14 19.5015 13.1169L16.5391 12.6436C16.452 13.1889 16.5107 13.7524 16.7134 14.2694L19.5064 13.1744ZM19.5015 13.1169C19.5031 13.1072 19.5056 13.1 19.5075 13.0959C19.5093 13.0918 19.5096 13.0929 19.5053 13.0978L17.2254 11.148C16.8592 11.5762 16.6263 12.098 16.5391 12.6436L19.5015 13.1169ZM19.5057 13.0974L25.5926 5.97448L23.3119 4.02552L17.225 11.1485L19.5057 13.0974ZM40.5621 17.5H24.5478V20.5H40.5621V17.5ZM40.5 17.5621C40.5 17.5278 40.5278 17.5 40.5621 17.5V20.5C42.1847 20.5 43.5 19.1847 43.5 17.5621H40.5ZM40.5 6.43791V17.5621H43.5V6.43791H40.5ZM40.5621 6.5C40.5278 6.5 40.5 6.4722 40.5 6.43791H43.5C43.5 4.81535 42.1847 3.5 40.5621 3.5V6.5ZM28.5841 6.5H40.5621V3.5H28.5841V6.5ZM27.1358 4.60944L25.9529 8.99592L28.8494 9.77705L30.0323 5.39056L27.1358 4.60944ZM27.4012 10.8865H29.6582V7.88648H27.4012V10.8865ZM29.6585 10.8865C29.5943 10.8865 29.5447 10.8651 29.5159 10.8443L31.2748 8.41408C30.8084 8.07647 30.2459 7.88639 29.658 7.88648L29.6585 10.8865ZM29.5159 10.8443C29.5026 10.8347 29.4956 10.8266 29.493 10.8232C29.4905 10.8198 29.4915 10.8202 29.4936 10.8256L32.2866 9.7306C32.0837 9.21309 31.739 8.75006 31.2748 8.41407L29.5159 10.8443ZM29.4936 10.8256C29.4986 10.8383 29.5022 10.86 29.4985 10.883L32.4609 11.3563C32.548 10.8111 32.4893 10.2476 32.2866 9.7306L29.4936 10.8256ZM29.4985 10.883C29.4968 10.8934 29.4942 10.9006 29.4925 10.9043C29.4908 10.908 29.4908 10.9066 29.4951 10.9016L31.7752 12.8513C32.1417 12.4226 32.3739 11.9012 32.4609 11.3563L29.4985 10.883ZM29.4948 10.902L23.4074 18.0255L25.6881 19.9745L31.7755 12.8509L29.4948 10.902Z" fill="#44D600" mask="url(#path-1-inside-1)"/>
<path fill-rule="evenodd" clip-rule="evenodd" d="M26.1613 3H7C5.34315 3 4 4.34315 4 6V18C4 19.6569 5.34315 21 7 21H19.7118L19.9887 20.1H7C5.8402 20.1 4.9 19.1598 4.9 18V6C4.9 4.8402 5.8402 3.9 7 3.9H25.3922L26.1613 3ZM22.8387 21H41C42.6569 21 44 19.6569 44 18V6C44 4.34315 42.6569 3 41 3H28.8643C28.9546 3.29041 28.9606 3.60504 28.8808 3.9H41C42.1598 3.9 43.1 4.8402 43.1 6V18C43.1 19.1598 42.1598 20.1 41 20.1H23.6078L22.8387 21Z" fill="white" fill-opacity="0.6"/>
<path d="M27.7509 3.07699C27.8488 3.14082 27.9245 3.2401 27.9657 3.35861C28.0069 3.47712 28.0112 3.60785 27.9779 3.72946L26.1769 10.3126H29.4998C29.5975 10.3125 29.693 10.3447 29.7746 10.405C29.8562 10.4653 29.9203 10.5512 29.959 10.6521C29.9977 10.7529 30.0094 10.8643 29.9924 10.9725C29.9755 11.0807 29.9308 11.181 29.8638 11.2609L21.8641 20.8229C21.7867 20.9155 21.6837 20.9758 21.5719 20.9941C21.4601 21.0124 21.346 20.9876 21.2484 20.9237C21.1507 20.8597 21.0752 20.7605 21.0341 20.6421C20.993 20.5237 20.9888 20.3931 21.0221 20.2716L22.8231 13.6874H19.5002C19.4025 13.6874 19.307 13.6553 19.2254 13.595C19.1438 13.5346 19.0797 13.4487 19.041 13.3479C19.0023 13.247 18.9906 13.1356 19.0076 13.0274C19.0245 12.9192 19.0692 12.819 19.1362 12.7391L27.1359 3.17711C27.2132 3.08464 27.3161 3.02431 27.4277 3.00593C27.5394 2.98755 27.6533 3.0122 27.7509 3.07587V3.07699Z" fill="white"/>
<path d="M45 15V15C45.5523 15 46 14.5523 46 14V10C46 9.44772 45.5523 9 45 9V9" stroke="white" stroke-opacity="0.6" stroke-width="0.9"/>
</svg>
