<svg width="51" height="29" viewBox="0 0 51 29" fill="none" xmlns="http://www.w3.org/2000/svg">
<g filter="url(#filter0_d)">
<mask id="path-1-inside-1" fill="white">
<path fill-rule="evenodd" clip-rule="evenodd" d="M7.43791 5C6.64377 5 6 5.64377 6 6.43791V17.5621C6 18.3562 6.64377 19 7.43791 19H10.5621C11.3562 19 12 18.3562 12 17.5621V6.43791C12 5.64377 11.3562 5 10.5621 5H7.43791Z"/>
</mask>
<path fill-rule="evenodd" clip-rule="evenodd" d="M7.43791 5C6.64377 5 6 5.64377 6 6.43791V17.5621C6 18.3562 6.64377 19 7.43791 19H10.5621C11.3562 19 12 18.3562 12 17.5621V6.43791C12 5.64377 11.3562 5 10.5621 5H7.43791Z" fill="#FF5353"/>
<path d="M7.5 6.43791C7.5 6.4722 7.4722 6.5 7.43791 6.5V3.5C5.81535 3.5 4.5 4.81535 4.5 6.43791H7.5ZM7.5 17.5621V6.43791H4.5V17.5621H7.5ZM7.43791 17.5C7.4722 17.5 7.5 17.5278 7.5 17.5621H4.5C4.5 19.1847 5.81535 20.5 7.43791 20.5V17.5ZM10.5621 17.5H7.43791V20.5H10.5621V17.5ZM10.5 17.5621C10.5 17.5278 10.5278 17.5 10.5621 17.5V20.5C12.1847 20.5 13.5 19.1847 13.5 17.5621H10.5ZM10.5 6.43791V17.5621H13.5V6.43791H10.5ZM10.5621 6.5C10.5278 6.5 10.5 6.4722 10.5 6.43791H13.5C13.5 4.81535 12.1847 3.5 10.5621 3.5V6.5ZM7.43791 6.5H10.5621V3.5H7.43791V6.5Z" fill="#FF5353" mask="url(#path-1-inside-1)"/>
<path fill-rule="evenodd" clip-rule="evenodd" d="M26.1613 3H7C5.34315 3 4 4.34315 4 6V18C4 19.6569 5.34315 21 7 21H19.7118L19.9887 20.1H7C5.8402 20.1 4.9 19.1598 4.9 18V6C4.9 4.8402 5.8402 3.9 7 3.9H25.3922L26.1613 3ZM22.8387 21H41C42.6569 21 44 19.6569 44 18V6C44 4.34315 42.6569 3 41 3H28.8643C28.9546 3.29041 28.9606 3.60504 28.8808 3.9H41C42.1598 3.9 43.1 4.8402 43.1 6V18C43.1 19.1598 42.1598 20.1 41 20.1H23.6078L22.8387 21Z" fill="white" fill-opacity="0.6"/>
<path d="M27.7509 3.07699C27.8488 3.14082 27.9245 3.2401 27.9657 3.35861C28.0069 3.47712 28.0112 3.60785 27.9779 3.72946L26.1769 10.3126H29.4998C29.5975 10.3125 29.693 10.3447 29.7746 10.405C29.8562 10.4653 29.9203 10.5512 29.959 10.6521C29.9977 10.7529 30.0094 10.8643 29.9924 10.9725C29.9755 11.0807 29.9308 11.181 29.8638 11.2609L21.8641 20.8229C21.7867 20.9155 21.6837 20.9758 21.5719 20.9941C21.4601 21.0124 21.346 20.9876 21.2484 20.9237C21.1507 20.8597 21.0752 20.7605 21.0341 20.6421C20.993 20.5237 20.9888 20.3931 21.0221 20.2716L22.8231 13.6874H19.5002C19.4025 13.6874 19.307 13.6553 19.2254 13.595C19.1438 13.5346 19.0797 13.4487 19.041 13.3479C19.0023 13.247 18.9906 13.1356 19.0076 13.0274C19.0245 12.9192 19.0692 12.819 19.1362 12.7391L27.1359 3.17711C27.2132 3.08464 27.3161 3.02431 27.4277 3.00593C27.5394 2.98755 27.6533 3.0122 27.7509 3.07587V3.07699Z" fill="white"/>
<path d="M45 15V15C45.5523 15 46 14.5523 46 14V10C46 9.44772 45.5523 9 45 9V9" stroke="white" stroke-opacity="0.6" stroke-width="0.9"/>
</g>
<defs>
<filter id="filter0_d" x="-4" y="0" width="58" height="32" filterUnits="userSpaceOnUse" color-interpolation-filters="sRGB">
<feFlood flood-opacity="0" result="BackgroundImageFix"/>
<feColorMatrix in="SourceAlpha" type="matrix" values="0 0 0 0 0 0 0 0 0 0 0 0 0 0 0 0 0 0 127 0"/>
<feOffset dy="4"/>
<feGaussianBlur stdDeviation="2"/>
<feColorMatrix type="matrix" values="0 0 0 0 0 0 0 0 0 0 0 0 0 0 0 0 0 0 0.25 0"/>
<feBlend mode="normal" in2="BackgroundImageFix" result="effect1_dropShadow"/>
<feBlend mode="normal" in="SourceGraphic" in2="effect1_dropShadow" result="shape"/>
</filter>
</defs>
</svg>
