<svg width="50" height="24" viewBox="0 0 50 24" fill="none" xmlns="http://www.w3.org/2000/svg">
<mask id="path-1-inside-1" fill="white">
<path fill-rule="evenodd" clip-rule="evenodd" d="M19 11.3803V6.43791C19 5.64377 18.3562 5 17.5621 5H7.43791C6.64377 5 6 5.64377 6 6.43791V17.5621C6 18.3562 6.64377 19 7.43791 19H17.5621C18.3562 19 19 18.3562 19 17.5621V14.5649C18.8603 14.5244 18.7267 14.4591 18.6046 14.3708C18.3857 14.2123 18.2137 13.9868 18.1099 13.7219C18.006 13.457 17.9749 13.1644 18.0203 12.8803C18.0657 12.5964 18.1859 12.3328 18.3653 12.1229L19 11.3803Z"/>
</mask>
<path fill-rule="evenodd" clip-rule="evenodd" d="M19 11.3803V6.43791C19 5.64377 18.3562 5 17.5621 5H7.43791C6.64377 5 6 5.64377 6 6.43791V17.5621C6 18.3562 6.64377 19 7.43791 19H17.5621C18.3562 19 19 18.3562 19 17.5621V14.5649C18.8603 14.5244 18.7267 14.4591 18.6046 14.3708C18.3857 14.2123 18.2137 13.9868 18.1099 13.7219C18.006 13.457 17.9749 13.1644 18.0203 12.8803C18.0657 12.5964 18.1859 12.3328 18.3653 12.1229L19 11.3803Z" fill="#44D600"/>
<path d="M19 11.3803L20.1403 12.3547L20.5 11.9339V11.3803H19ZM19 14.5649H20.5V13.4378L19.4174 13.1241L19 14.5649ZM18.6046 14.3708L19.4841 13.1557L19.4841 13.1557L18.6046 14.3708ZM18.1099 13.7219L16.7134 14.2694L16.7134 14.2694L18.1099 13.7219ZM18.0203 12.8803L16.5391 12.6436V12.6436L18.0203 12.8803ZM18.3653 12.1229L19.5053 13.0978L19.5057 13.0974L18.3653 12.1229ZM17.5 6.43791V11.3803H20.5V6.43791H17.5ZM17.5621 6.5C17.5278 6.5 17.5 6.4722 17.5 6.43791H20.5C20.5 4.81535 19.1847 3.5 17.5621 3.5V6.5ZM7.43791 6.5H17.5621V3.5H7.43791V6.5ZM7.5 6.43791C7.5 6.4722 7.4722 6.5 7.43791 6.5V3.5C5.81535 3.5 4.5 4.81535 4.5 6.43791H7.5ZM7.5 17.5621V6.43791H4.5V17.5621H7.5ZM7.43791 17.5C7.4722 17.5 7.5 17.5278 7.5 17.5621H4.5C4.5 19.1847 5.81535 20.5 7.43791 20.5V17.5ZM17.5621 17.5H7.43791V20.5H17.5621V17.5ZM17.5 17.5621C17.5 17.5278 17.5278 17.5 17.5621 17.5V20.5C19.1847 20.5 20.5 19.1847 20.5 17.5621H17.5ZM17.5 14.5649V17.5621H20.5V14.5649H17.5ZM19.4174 13.1241C19.4468 13.1326 19.469 13.1447 19.4841 13.1557L17.7252 15.5859C17.9843 15.7735 18.2737 15.9161 18.5826 16.0056L19.4174 13.1241ZM19.4841 13.1557C19.4974 13.1653 19.5043 13.1734 19.5069 13.1768C19.5095 13.1801 19.5085 13.1797 19.5064 13.1744L16.7134 14.2694C16.9163 14.7869 17.261 15.2499 17.7252 15.5859L19.4841 13.1557ZM19.5064 13.1744C19.5014 13.1616 19.4978 13.14 19.5015 13.1169L16.5391 12.6436C16.452 13.1889 16.5107 13.7524 16.7134 14.2694L19.5064 13.1744ZM19.5015 13.1169C19.5031 13.1072 19.5056 13.1 19.5075 13.0959C19.5093 13.0918 19.5096 13.0929 19.5053 13.0978L17.2254 11.148C16.8592 11.5762 16.6263 12.098 16.5391 12.6436L19.5015 13.1169ZM19.5057 13.0974L20.1403 12.3547L17.8597 10.4058L17.225 11.1485L19.5057 13.0974Z" fill="#44D600" mask="url(#path-1-inside-1)"/>
<path fill-rule="evenodd" clip-rule="evenodd" d="M26.1613 3H7C5.34315 3 4 4.34315 4 6V18C4 19.6569 5.34315 21 7 21H19.7118L19.9887 20.1H7C5.8402 20.1 4.9 19.1598 4.9 18V6C4.9 4.8402 5.8402 3.9 7 3.9H25.3922L26.1613 3ZM22.8387 21H41C42.6569 21 44 19.6569 44 18V6C44 4.34315 42.6569 3 41 3H28.8643C28.9546 3.29041 28.9606 3.60504 28.8808 3.9H41C42.1598 3.9 43.1 4.8402 43.1 6V18C43.1 19.1598 42.1598 20.1 41 20.1H23.6078L22.8387 21Z" fill="white" fill-opacity="0.6"/>
<path d="M27.7509 3.07699C27.8488 3.14082 27.9245 3.2401 27.9657 3.35861C28.0069 3.47712 28.0112 3.60785 27.9779 3.72946L26.1769 10.3126H29.4998C29.5975 10.3125 29.693 10.3447 29.7746 10.405C29.8562 10.4653 29.9203 10.5512 29.959 10.6521C29.9977 10.7529 30.0094 10.8643 29.9924 10.9725C29.9755 11.0807 29.9308 11.181 29.8638 11.2609L21.8641 20.8229C21.7867 20.9155 21.6837 20.9758 21.5719 20.9941C21.4601 21.0124 21.346 20.9876 21.2484 20.9237C21.1507 20.8597 21.0752 20.7605 21.0341 20.6421C20.993 20.5237 20.9888 20.3931 21.0221 20.2716L22.8231 13.6874H19.5002C19.4025 13.6874 19.307 13.6553 19.2254 13.595C19.1438 13.5346 19.0797 13.4487 19.041 13.3479C19.0023 13.247 18.9906 13.1356 19.0076 13.0274C19.0245 12.9192 19.0692 12.819 19.1362 12.7391L27.1359 3.17711C27.2132 3.08464 27.3161 3.02431 27.4277 3.00593C27.5394 2.98755 27.6533 3.0122 27.7509 3.07587V3.07699Z" fill="white"/>
<path d="M45 15V15C45.5523 15 46 14.5523 46 14V10C46 9.44772 45.5523 9 45 9V9" stroke="white" stroke-opacity="0.6" stroke-width="0.9"/>
</svg>
