<svg width="52" height="32" viewBox="0 0 52 32" fill="none" xmlns="http://www.w3.org/2000/svg">
<path d="M33.038 28.8C25.2542 28.8 25.2542 3.19999 33.038 3.19999C41.6002 3.19999 48.8002 7.99999 48.8002 16C48.8002 24 41.6002 28.8 33.038 28.8Z" fill="#44D600"/>
<circle r="3.2" transform="matrix(-1 0 0 1 21.5998 6.40001)" fill="#44D600"/>
<circle r="2.4" transform="matrix(-1 0 0 1 12.7997 6.40006)" fill="#44D600"/>
<circle r="1.6" transform="matrix(-1 0 0 1 5.59971 6.40005)" fill="#44D600"/>
<circle r="3.2" transform="matrix(-1 0 0 1 21.5998 16)" fill="#44D600"/>
<circle r="2.4" transform="matrix(-1 0 0 1 12.7997 16)" fill="#44D600"/>
<circle r="1.6" transform="matrix(-1 0 0 1 5.59971 16)" fill="#44D600"/>
<circle r="3.2" transform="matrix(-1 0 0 1 21.5998 25.6001)" fill="#44D600"/>
<circle r="2.4" transform="matrix(-1 0 0 1 12.7997 25.6002)" fill="#44D600"/>
<circle r="1.6" transform="matrix(-1 0 0 1 5.59971 25.6002)" fill="#44D600"/>
</svg>
